<?xml version="1.0" standalone="no"?><!DOCTYPE svg PUBLIC "-//W3C//DTD SVG 1.1//EN" "http://www.w3.org/Graphics/SVG/1.1/DTD/svg11.dtd"><svg t="1727197570860" class="icon" viewBox="0 0 1024 1024" version="1.1" xmlns="http://www.w3.org/2000/svg" p-id="28604" xmlns:xlink="http://www.w3.org/1999/xlink" width="128" height="128"><path d="M113.792 113.792m113.792 0l568.874667 0q113.792 0 113.792 113.792l0 568.874667q0 113.792-113.792 113.792l-568.874667 0q-113.792 0-113.792-113.792l0-568.874667q0-113.792 113.792-113.792Z" fill="#FF7C00" p-id="28605"></path><path d="M398.549333 445.866667c4.266667-0.597333 11.818667 7.893333 14.848 13.952a9681.493333 9681.493333 0 0 1 72.533334 149.589333c2.986667 6.4 3.328 16.085333 0.298666 22.442667-26.410667 57.642667-54.016 114.986667-81.024 172.373333-4.266667 9.088-10.325333 12.373333-20.053333 12.117333-24.832-0.597333-49.706667-0.298667-74.282667-0.298666H241.066667c-21.546667 0-25.770667-7.296-16.384-27.008 29.141333-61.312 58.581333-122.88 87.978666-184.192 23.04-48.213333 45.824-96.469333 69.504-144.426667 2.986667-6.357333 10.325333-13.653333 16.384-14.506667zM334.805333 207.104c30.037333 1.194667 60.074667 0.896 89.813334 0.896 28.245333 0 56.746667 0.597333 84.949333-0.298667 11.861333-0.298667 18.218667 3.925333 23.04 14.549334 58.88 124.416 118.058667 248.789333 177.237333 372.906666 7.893333 16.384 16.384 32.426667 23.04 49.152 4.266667 10.325333 10.325333 13.354667 20.650667 12.416 11.52-0.896 23.338667 0 34.901333-0.298666 10.922667-0.298667 15.445333 4.864 15.445334 15.786666a8920.32 8920.32 0 0 0 0 127.445334c0 11.52-4.864 16.384-16.384 16.085333-47.616-0.341333-94.976-0.64-142.592 0.298667-12.757333 0.298667-16.085333-8.192-20.309334-16.682667l-135.68-283.989333C467.157333 469.546667 444.714667 423.722667 423.125333 377.301333c-3.669333-8.192-8.192-11.221333-16.981333-10.922666-23.68 0.597333-47.658667-0.298667-71.338667 0.298666-12.714667 0.298667-18.773333-4.565333-18.773333-17.578666 0.298667-41.6 0.298667-82.858667 0-124.416 0-12.757333 5.76-17.92 18.773333-17.578667z m158.72 26.069333c-39.466667 0.938667-78.933333 0.298667-118.357333 0.298667h-30.933333v108.032c23.978667 0 46.72 0.896 69.461333-0.298667 16.384-0.938667 25.173333 4.522667 32.170667 19.712 65.834667 139.264 132.266667 277.930667 198.4 416.853334 4.266667 9.130667 9.429333 13.653333 20.352 13.056l22.784-0.426667 45.482666 0.128h44.928c-0.298667-36.992-0.298667-71.594667-0.298666-107.989333-11.264 0-21.845333-1.237333-32.170667 0.298666-17.92 2.432-26.709333-5.461333-34.304-21.546666-64.938667-138.368-131.072-276.096-196.266667-414.464-4.565333-9.685333-9.728-13.952-21.248-13.653334zM398.250667 489.258667c-49.152 101.632-96.213333 200.533333-144.128 301.269333 39.722667 0 77.056-0.298667 114.346666 0.298667 10.368 0.341333 15.189333-3.328 19.456-12.416 18.517333-40.362667 35.797333-81.322667 57.344-119.850667 14.848-27.008 14.848-48.853333-0.597333-75.264-17.322667-29.098667-30.336-60.672-46.421333-94.037333z" fill="#FF7C00" p-id="28606"></path><path d="M493.184 233.173333c11.52-0.298667 16.725333 3.968 21.248 13.653334 65.28 138.069333 131.413333 276.096 196.309333 414.464 7.594667 16.085333 16.384 23.978667 34.304 21.546666 10.624-1.536 21.205333-0.298667 32.426667-0.298666v107.989333h-44.885333c-22.741333 0-45.525333-0.597333-68.266667 0.298667-10.922667 0.64-16.085333-3.925333-20.309333-13.013334L511.445333 500.010667a34921.685333 34921.685333 0 0 1-65.877333-139.093334c-7.253333-15.189333-15.786667-20.906667-32.170667-19.712-22.741333 1.493333-45.482667 0.298667-69.461333 0.298667V233.472h30.933333c39.466667 0 78.890667 0.64 118.314667-0.298667zM397.952 489.258667c16.042667 33.365333 29.44 64.938667 46.421333 94.037333 15.445333 26.112 15.445333 48.256 0.597334 75.264-21.546667 38.528-38.826667 79.488-57.344 119.850667-4.266667 9.088-9.130667 12.416-19.413334 12.416-37.333333-0.853333-74.368-0.298667-114.090666-0.298667 47.914667-100.693333 95.274667-199.637333 143.786666-301.269333z" fill="#FFFFFF" p-id="28607"></path></svg>