<?xml version="1.0" standalone="no"?><!DOCTYPE svg PUBLIC "-//W3C//DTD SVG 1.1//EN" "http://www.w3.org/Graphics/SVG/1.1/DTD/svg11.dtd"><svg t="1727200372117" class="icon" viewBox="0 0 1024 1024" version="1.1" xmlns="http://www.w3.org/2000/svg" p-id="31482" xmlns:xlink="http://www.w3.org/1999/xlink" width="128" height="128"><path d="M0 0m128 0l768 0q128 0 128 128l0 768q0 128-128 128l-768 0q-128 0-128-128l0-768q0-128 128-128Z" fill="#FF4B4B" fill-opacity=".1" p-id="31483"></path><path d="M512.576 560.544L378.4 489.6l-232.928-123.104c-0.224-0.224-0.64-0.224-0.864-0.224-8.48-4.032-17.216 4.48-14.016 12.992l118.688 302.72v0.032l0.384 0.896c4.864 11.296 15.488 18.272 27.072 21.024l2.848 0.64c1.152 0.256 2.784 0.608 4.192 0.704l0.672 0.064h0.192l0.512 0.032h0.96l0.512 0.032c150.304 16.384 301.984 16.384 452.288 0 1.792 0 3.552-0.064 5.28-0.256l1.6-0.192 0.224-0.032 1.088-0.16a21.344 21.344 0 0 0 1.6-0.288 56.128 56.128 0 0 0 8.32-2.976 67.84 67.84 0 0 0 8.32-5.312c0.64-0.48 1.088-0.8 1.536-1.28l-0.256-0.128-254.048-134.24z" fill="#FF4B4B" p-id="31484"></path><path d="M880.096 366.496h-0.224L646.88 489.6l129.504 192.928 118.4-303.264v-0.448a10.24 10.24 0 0 0-14.72-12.32z" fill="#7D353B" p-id="31485"></path><path d="M525.024 307.968a14.912 14.912 0 0 0-24.672 0L378.4 489.6l134.176 70.944 254.304 134.4c1.6-1.6 2.88-3.104 4.256-4.704 1.952-2.432 3.744-4.992 5.248-7.712L646.848 489.6l-121.824-181.632z" fill="#BD4043" p-id="31486"></path></svg>