<svg width="720" height="720" viewBox="0 0 720 720" fill="none" xmlns="http://www.w3.org/2000/svg">
<rect width="720" height="720" rx="130" fill="#FA4616"/>
<path fill-rule="evenodd" clip-rule="evenodd" d="M135 139H585V580.223H135C135 579.426 135 139 135 139ZM538.723 533.947V184.479H182.074V533.947H538.723ZM222.766 385.543V252.298H269.043V385.543C269.043 419.053 283.404 439 316.117 439C346.436 439 361.596 419.851 361.596 385.543V252.298H408.67V385.543C408.67 446.181 374.362 482.085 315.319 482.085C256.277 482.883 222.766 446.979 222.766 385.543ZM468.511 280.223C484.468 280.223 497.234 269.053 497.234 253.096C497.234 236.34 485.266 225.17 468.511 225.17C452.553 225.17 439.787 236.34 439.787 253.096C439.787 268.255 451.755 280.223 468.511 280.223ZM444.574 480.489V300.968H491.649V480.489H444.574Z" fill="white"/>
</svg>
